
<svg width="100%" height="100%" viewBox="0 0 500 200" xmlns="http://www.w3.org/2000/svg" fill="#ffffff">
  <style>
    .main-text {
      font-family: 'Segoe UI', sans-serif;
      font-size: 48px;
      font-weight: bold;
      letter-spacing: 1px;
    }
    .tagline {
      font-family: 'Tahoma', sans-serif;
      font-size: 18px;
      font-weight: 400;
      fill: #ffffff;
    }
    .icon-symbol {
      fill: #ffffff;
    }
  </style>

  <!-- Icon: abstract symbol representing creativity and digital connection -->
  <g transform="translate(20, 60)">
    <circle cx="25" cy="25" r="22" class="icon-symbol" fill-opacity="0.08"/>
    <path class="icon-symbol" d="M25 10c-8 0-15 7-15 15s7 15 15 15 15-7 15-15-7-15-15-15zm0 5a10 10 0 1 1 0 20 10 10 0 0 1 0-20z"/>
    <circle cx="25" cy="25" r="3" class="icon-symbol"/>
    <path class="icon-symbol" d="M25 0v7M25 43v7M7 25h7M43 25h7M12 12l5 5M38 38l5 5M12 38l5-5M38 12l5-5" stroke="#ffffff" stroke-width="1"/>
  </g>

  <!-- Main brand text -->
  <text x="90" y="80" class="main-text">Creademy</text>

  <!-- Tagline -->
  <text x="90" y="120" class="tagline">نحو بيئة رقمية متكاملة</text>
</svg>
